<svg xmlns="http://www.w3.org/2000/svg" viewBox="0 0 430.84922 430.84922"><title>Asset 1</title><g id="Layer_2" data-name="Layer 2"><g id="Objects"><rect x="206.10898" width="18.63127" height="73.67819"/><rect x="116.81622" y="23.92592" width="18.63127" height="73.67819" transform="translate(-13.48404 71.20689) rotate(-30)" fill="#282828"/><rect x="51.44938" y="89.29276" width="18.63127" height="73.67819" transform="translate(-78.85088 115.68997) rotate(-60)" fill="#494949"/><rect x="27.52346" y="178.58551" width="18.63127" height="73.67819" transform="translate(-178.58551 252.2637) rotate(-90)" fill="#686868"/><rect x="51.44938" y="267.87827" width="18.63127" height="73.67819" transform="translate(-172.74546 509.7001) rotate(-120)" fill="#828282"/><rect x="116.81622" y="333.24511" width="18.63127" height="73.67819" transform="translate(50.32314 753.65245) rotate(-150)" fill="#a0a0a0"/><rect x="206.10898" y="357.17103" width="18.63127" height="73.67819" transform="translate(430.84922 788.02025) rotate(-180)" fill="#b7b7b7"/><rect x="295.40173" y="333.24511" width="18.63127" height="73.67819" transform="translate(753.65245 538.22784) rotate(150)" fill="#c6c6c6"/><rect x="360.76857" y="267.87827" width="18.63127" height="73.67819" transform="translate(819.01928 136.57373) rotate(120)" fill="#d8d8d8"/><rect x="384.69449" y="178.58551" width="18.63127" height="73.67819" transform="translate(609.43473 -178.58551) rotate(90)" fill="#dedfe0"/><rect x="360.76857" y="89.29276" width="18.63127" height="73.67819" transform="translate(294.27549 -257.43639) rotate(60)" fill="#efefef"/><rect x="295.40173" y="23.92592" width="18.63127" height="73.67819" transform="translate(71.20689 -144.21771) rotate(30)" fill="#f9f9f9"/></g></g></svg>